# xmcd CD database file
#
# Track frame offsets:
#	150
#	45132
#	81195
#	115970
#	142377
#	174787
#	207397
#	224977
#
# Disc length: 3527 seconds
#
# Revision: 0
# Processed by: cddbd v1.5.1PL0 Copyright (c) Steve Scherf et al.
# Submitted via: CDex 1.50
#
DISCID=770dc508
DTITLE=Jazz and Dintorni #54 - Bobby Watson and Jerry Bergonzi
DYEAR=1900
DGENRE=Jazz
TTITLE0=Appointment in Milano
TTITLE1=Ballando (Dancing)
TTITLE2=Sweet Dreams
TTITLE3=IIBS
TTITLE4=Round Trip
TTITLE5=There Is Not A Greater Love
TTITLE6=Pent Up House
TTITLE7=Mode For Joe
EXTD=
EXTT0=
EXTT1=
EXTT2=
EXTT3=
EXTT4=
EXTT5=
EXTT6=
EXTT7=
PLAYORDER=
